# xmcd
#
# Track frame offsets: 
#        150
#        21503
#        32997
#        50610
#        62094
#        72971
#        88404
#        99198
#        110365
#        132509
#        144212
#        157284
#        176705
#        193180
#        204653
#        223304
#        242572
#        256814
#        265333
#        278813
#        291525
#        301118
#        336216
#
# Disc length: 4684 seconds
#
# Revision: 2
# Processed by: cddbd v1.5.2PL0 Copyright (c) Steve Scherf et al.
# Submitted via: ExactAudioCopy v0.99pb5
#
DISCID=72124a17
DTITLE=Various Artist - Midwest Funk
DYEAR=2003
DGENRE=Funk
TTITLE0=The Us - Let's Do it Today
TTITLE1=Markus Kelly and the Impassions - Pushin' To The Top
TTITLE2=Harvey and the Phenomenals - Soul and Sunshine
TTITLE3=The New Establishment In Soul - Whip It (pt. 1)
TTITLE4=Billy Ball and the Upsetters - Sissy Walk
TTITLE5=The T.M.G.'s - The Hatch
TTITLE6=Fred Williams and the Jewels Band - Tell Her
TTITLE7=Wanda Davis - Save Me
TTITLE8=Fabulous Originals - It Ain't Fair, But It's Fun (pts. 1 and 2)
TTITLE9=Barbara Howard - I Don't Want Your Love
TTITLE10=The Personations and Organization - Future II
TTITLE11=Chocolate Snow - A Day in the Life
TTITLE12=Henry Peters - Master Groove
TTITLE13=People in the News - Color Me
TTITLE14=The Chefs - Mr. Machine (pts. 1 and 2)
TTITLE15=Messengers Incorporated - Soulful Proclamation
TTITLE16=Dayton Sidewinders - Funky In Here
TTITLE17=Soul Toronadoes - Boot's Groove
TTITLE18=The Wallace Brothers - What-cha Feel Is What-cha Get
TTITLE19=Earl English and the Apaches - Trying to Make Ends Meet
TTITLE20=Epitaph - Epitaph Movement
TTITLE21=Billy Joe Holloman - It's Not You For Me
TTITLE22=Illinois Connection - Po' Boy's Dream
EXTD=
EXTT0=
EXTT1=
EXTT2=
EXTT3=
EXTT4=
EXTT5=
EXTT6=
EXTT7=
EXTT8=
EXTT9=
EXTT10=
EXTT11=
EXTT12=
EXTT13=
EXTT14=
EXTT15=
EXTT16=
EXTT17=
EXTT18=
EXTT19=
EXTT20=
EXTT21=
EXTT22=
PLAYORDER=
